# xmcd
#
# Track frame offsets:
#	150
#	17477
#	26317
#	38325
#	49915
#	61050
#	73915
#	86215
#	92590
#	103982
#	117405
#	127862
#	138292
#	145135
#	153152
#	161407
#	182077
#
# Disc length: 2565 seconds
#
# Revision: 2
# Processed by: cddbd v1.5.2PL0 Copyright (c) Steve Scherf et al.
# Submitted via: audiograbber 1.83.01
#
DISCID=d80a0311
DTITLE=Patsy Cline - Discovery!
DYEAR=1994
DGENRE=Country
TTITLE0=Walking After Midnight (live 1-21-1957 Arthur Godfrey)
TTITLE1=I Don't Wanta (live 1-8-1958 Arthur Godfrey)
TTITLE2=Then You'll Know (live 10-24-1957 Arthur Godfrey)
TTITLE3=Don't Ever Leave Me Again (live 1-10-1958 Arthur Godfrey)
TTITLE4=Two Cigarettes In An Ashtray  (live 10-22-1957 Arthur Godfrey)
TTITLE5=(Write Me) In Care Of The Blues (live 1-14-1958 Arthur Godfrey)
TTITLE6=Your Cheatin' Heart (live 1-8-1958 Arthur Godfrey)
TTITLE7=The Man Upstairs (live 1-10-1958 Arthur Godfrey)
TTITLE8=Stop The World (And Let Me Get Off) (live 1-13-1958 Arthur Godfrey)
TTITLE9=Try Again (live 4-23-1957 Arthur Godfrey)
TTITLE10=Walkin' Dream (live 1-9-1958 Arthur Godfrey)
TTITLE11=Too Many Secrets (live 10-25-1957 Arthur Godfrey)
TTITLE12=Down By The Riverside (live 1-14-1958 Arthur Godfrey)
TTITLE13=Come On In (live 1-6-1958 Arthur Godfrey)
TTITLE14=Ain't No Wheels On The Ship (live 1-16-1958 Arthur Godfrey)
TTITLE15=Hungry For Love (live 1-16-1958 Arthur Godfrey)
TTITLE16=Walkin' After Midnight (live 4-26-957 Arthur Godfrey)
EXTD=
EXTT0=
EXTT1=
EXTT2=
EXTT3=
EXTT4=
EXTT5=
EXTT6=
EXTT7=
EXTT8=
EXTT9=
EXTT10=
EXTT11=
EXTT12=
EXTT13=
EXTT14=
EXTT15=
EXTT16=
PLAYORDER=
